<?xml version="1.0" encoding="utf-8"?>
<!-- Generator: Adobe Illustrator 12.0.0, SVG Export Plug-In . SVG Version: 6.00 Build 51448)  -->
<!DOCTYPE svg PUBLIC "-//W3C//DTD SVG 1.1//EN" "http://www.w3.org/Graphics/SVG/1.1/DTD/svg11.dtd" [
	<!ENTITY ns_svg "http://www.w3.org/2000/svg">
	<!ENTITY ns_xlink "http://www.w3.org/1999/xlink">
]>
<svg  version="1.1" id="Layer_1" xmlns="&ns_svg;" xmlns:xlink="&ns_xlink;" width="611.756" height="368.756"
	 viewBox="0 0 611.756 368.756" overflow="visible" enable-background="new 0 0 611.756 368.756" xml:space="preserve">
<g>
	<polygon opacity="0" fill-rule="evenodd" clip-rule="evenodd" fill="#FFFFFF" points="0,0 611.756,0 611.756,368.756 0,368.756 
		0,0 	"/>
	<path fill-rule="evenodd" clip-rule="evenodd" fill="#AF9B6D" d="M393.202,69.212c-1.268-2.96-3.806-5.074-6.341-6.344
		c-3.807-0.843-7.612-0.422-10.15,2.959c-2.114,2.539-3.385,6.766-1.269,10.15c0.847,2.96,3.807,3.806,3.807,7.19l-26.643,60.893
		c-1.691,2.117-1.691,5.495-3.806,6.766c-0.846-0.422-1.692-1.271-1.692-2.114l2.96-50.321l2.114-34.254
		c0.424-2.539-0.844-6.344,1.271-8.461c3.806-0.843,6.341-2.535,8.033-5.495c1.268-3.381,1.268-8.458-1.268-10.993
		c-2.538-2.539-5.498-3.385-9.304-2.963c-3.385,1.271-7.188,3.806-7.612,8.461c-0.422,4.649,2.113,8.455,5.498,10.147
		c0.846,0,1.268,0.843,1.692,1.692l-20.723,90.495c-0.421,1.692-1.692,2.96-2.538,2.535c-0.422-0.421-1.268-1.264-1.268-2.114
		l-9.305-99.374c1.692-3.806,6.345-3.382,7.612-7.612c1.268-2.117,0.847-5.923,0.425-8.458c-1.692-2.535-4.23-4.228-7.19-5.074
		c-2.535-0.425-5.495,0.846-7.609,1.689c-2.541,2.114-4.655,5.499-3.806,9.726c0.421,2.542,1.689,4.233,3.378,5.498
		c1.271,1.692,4.655,1.271,4.655,4.231l-4.228,49.899l-4.23,50.324l-0.846,1.689c-0.846,0.846-2.114-0.425-2.114-0.846
		L279.45,59.911c-0.424-1.271-0.424-2.963,0.421-4.234c3.385-2.113,5.92-7.187,5.074-11.839c-1.689-4.228-4.652-6.763-9.301-6.763
		c-3.806,0.421-7.612,2.114-8.882,5.92c-1.692,3.806-0.843,8.455,1.692,10.993c2.114,2.539,7.19,0.846,8.458,4.23l1.692,16.489
		l8.034,75.274c0,2.117,0.846,4.23-0.425,5.923c-0.421,0.421-1.692,0.421-2.114-0.425c-10.568-22.411-21.144-46.093-31.715-68.929
		c-0.422-1.689-1.689-3.806-0.846-5.923c1.271-1.689,2.963-3.378,3.806-5.495c0.424-2.539,0.424-5.074-1.268-7.188
		c-0.846-2.117-2.959-3.385-5.495-4.23c-3.384-0.846-8.037,0.424-10.575,2.959c-2.114,2.539-2.114,7.19-0.843,10.575
		c1.268,2.535,3.381,4.228,5.92,4.649c2.535,0.846,5.074,0,6.341,2.539c10.147,33.408,19.452,66.813,28.756,100.224l5.077,3.806
		c10.569,6.341,22.836,11.84,35.943,10.991c5.498-0.422,10.15-2.114,14.378-3.806c4.228-1.265,7.611-2.957,10.996-5.071
		c2.957-0.849,5.073-2.963,7.609-4.652l21.144-73.582l8.036-28.334c1.692-4.228,8.034-2.114,10.15-6.341
		C392.356,75.132,393.627,72.172,393.202,69.212L393.202,69.212z M348.801,185.081c-8.036,3.806-16.491,6.766-26.642,7.19
		c-13.532,2.114-29.602-2.542-40.174-8.037c-0.843,0-0.421-0.846,0-1.268c8.458-5.92,18.184-9.304,29.602-10.575
		c13.953-0.421,27.063,2.114,37.214,10.15C350.068,183.389,350.068,184.66,348.801,185.081L348.801,185.081z"/>
	<path fill-rule="evenodd" clip-rule="evenodd" fill="#496364" d="M294.674,325.476c0,1.692,1.268,2.963,2.535,3.806h4.228
		c10.575-0.421,14.803,0.85,24.953-0.843c3.381-1.692,6.763-3.385,8.033-8.033c1.692-6.77,1.692-14.382,2.538-21.572h8.88v40.174
		l-86.271,0.422v-10.147c5.499-0.421,6.769,0.422,13.11-0.421c0.85-0.844,2.963-2.114,2.539-4.228v-62.589
		c-0.425-2.535,0-6.341-2.539-8.033c-3.806-2.114-10.569-0.85-12.686-1.692v-9.305h51.592v8.462
		c-3.806,1.265-10.572,0.421-13.957,1.686c-1.268,0-2.957,1.692-2.957,3.385V325.476L294.674,325.476z"/>
	<path fill-rule="evenodd" clip-rule="evenodd" fill="#496364" d="M375.864,256.546c0-1.265-0.422-2.957-1.692-3.385
		c-5.073-0.421-8.455,0-13.953-0.421v-9.727h92.188v38.482h-9.305c0-10.147-0.422-22.409-8.88-27.064
		c-2.538-0.843-5.073-1.271-8.033-1.691l-27.488,0.421c-0.421,0.428-3.806-0.421-4.228,1.271v28.335l1.268,1.271
		c6.767,0,15.646,1.265,19.03-7.19c1.268-3.385,1.692-11.418,1.692-11.418h8.455v49.478h-9.726
		c-0.422-5.919,0.846-14.802-4.228-18.187c-3.807-3.385-9.727-2.957-15.225-2.114l-1.268,0.85v32.562
		c0.422,1.687,2.535,1.265,3.807,1.265c9.301-0.421,17.759,0.422,30.444-0.421c6.345-1.271,11.418-6.342,12.686-13.954
		c0.847-5.498,0.847-10.996,1.271-16.494h9.727l-0.425,41.017h-92.188v-10.147c5.923,0,11.418,0.85,14.378-0.843
		c1.692-1.271,2.117-4.233,1.692-6.348V256.546L375.864,256.546z"/>
	<path fill-rule="evenodd" clip-rule="evenodd" fill="#496364" d="M584.767,339.429h-55.397v-9.726
		c2.96-0.843,9.726,0.849,13.11-1.265c1.268-0.85,1.692-2.963,1.692-4.655c-5.499-7.612-11.418-14.796-17.338-21.987
		c-1.692,0-2.963,1.271-4.23,2.957l-15.225,17.766c-0.421,1.687-0.846,2.957,0,4.649c0.847,1.271,2.117,2.113,3.807,2.535h9.304
		v9.726l-48.632-0.422v-9.304c4.23-0.422,5.498,0.428,10.15-0.422c2.96-0.843,5.498-2.535,8.033-5.076
		c8.88-10.99,18.608-21.987,28.335-32.983l-0.847-1.265c-8.033-10.997-16.491-21.993-25.374-32.989
		c-2.114-3.379-7.188-3.807-11.84-3.807h-4.652v-10.147h52.017v9.727c-1.692,0.849-4.652,0-6.769,0.421
		c-1.689,0-2.535,0.85-3.804,1.692c-0.849,1.271-1.271,3.385-0.424,4.655l13.11,16.916h1.268
		c5.073-5.498,10.15-11.846,15.224-18.187c0.846-1.271,0.846-3.385-0.425-4.649l-1.688-0.428l-8.459-0.421l-0.421-9.727h45.247
		v9.727c0,0-13.11-0.844-16.494,3.384c-8.455,10.575-17.338,20.301-25.793,30.87l1.688,2.535l27.91,35.524
		c3.385,4.649,10.15,4.228,16.916,4.228V339.429L584.767,339.429z"/>
	<path fill-rule="evenodd" clip-rule="evenodd" fill="#496364" d="M126.788,313.215h-7.612c-0.421,4.648,0.424,9.304-1.268,13.531
		c-0.846,1.692-2.539,2.114-4.231,1.692c-1.689-0.422-2.957-1.271-3.806-2.963c-1.268-7.612-0.422-16.067-2.114-23.68
		c-2.114-7.611-8.88-9.304-15.224-10.996c-0.421,0-0.843-1.271,0-1.271c7.19-1.687,13.11-2.535,18.187-7.612
		c5.495-4.648,8.034-15.218,5.495-23.679c-3.803-11.418-14.799-14.803-24.525-15.225H27.835v8.883c4.652,0.422,9.726,0,13.532,1.265
		c1.268,0.428,1.692,2.12,2.117,3.385v57.512l-0.849,11.839c-2.535,5.92-10.994,3.385-15.646,4.234v9.298H77.31v-9.726H66.741
		l-2.963-0.422c-1.268-0.843-1.692-2.535-1.692-4.228v-30.026l1.271-0.843c5.498-0.422,8.883-0.85,16.07,0
		c4.228,0.843,7.187,3.806,9.301,7.611c2.963,8.883,1.692,18.609,3.385,28.335c0.846,5.498,4.228,8.876,8.458,10.568
		c6.766,2.535,16.492,2.535,21.568-1.692C128.059,332.666,126.367,321.669,126.788,313.215L126.788,313.215z M84.922,281.917
		c-10.994,0.428-13.954,0.428-21.987,0.428l-0.85-0.849v-27.485c0-0.85,1.692-1.271,2.542-1.271
		c6.341,1.271,21.144-2.114,27.064,3.384c3.384,3.385,5.919,9.305,4.649,15.646C94.227,277.269,90.42,281.496,84.922,281.917
		L84.922,281.917z"/>
	<path fill-rule="evenodd" clip-rule="evenodd" fill="#496364" d="M230.818,256.968c-8.037-8.877-17.762-13.954-30.873-15.646
		c-3.381-0.422-3.381,0-7.188-0.422c-10.993,0.422-21.144,4.228-30.023,10.575c-13.956,10.147-22.836,32.562-17.338,52.856
		c5.074,19.029,17.759,31.297,33.83,36.367c4.652,0.843,12.686,1.692,16.913,1.692c19.455-0.422,34.679-11.418,43.559-29.599
		C247.731,294.605,243.082,269.656,230.818,256.968L230.818,256.968z M214.748,318.291c-4.652,7.185-13.11,11.84-21.144,11.412
		c-4.228,0-9.304-0.843-12.689-3.379c-12.261-7.19-15.646-25.377-14.375-41.444c0.843-12.688,6.763-25.793,16.916-30.026
		c4.228-2.113,8.876-1.692,14.796-1.692c7.19,1.271,13.535,5.926,17.341,13.11C223.206,281.074,223.206,303.91,214.748,318.291
		L214.748,318.291z"/>
</g>
</svg>
